<svg width="146" height="40" viewBox="0 0 146 40" fill="none" xmlns="http://www.w3.org/2000/svg"><g clip-path="url(#clip0)"><path d="M6.92 7.823v9.552a.448.448 0 0 0 .449.449h4.584a.451.451 0 0 1 .448.45v5.504a.449.449 0 0 1-.448.45H7.369a.449.449 0 0 0-.448.45v14.868a.448.448 0 0 1-.449.448H.448A.448.448 0 0 1 0 39.546V.946A.448.448 0 0 1 .448.5h30.493a.449.449 0 0 1 .448.448v5.98a.449.449 0 0 1-.448.448H7.369a.448.448 0 0 0-.448.448zm27.81 31.723a.448.448 0 0 0 .45.448h13a.448.448 0 0 0 .448-.448v-5.255a.448.448 0 0 0-.449-.448h-6.826a.451.451 0 0 1-.448-.452v-10.24a.447.447 0 0 1 .448-.451h4.715a.451.451 0 0 0 .44-.448v-5.467a.451.451 0 0 0-.45-.449h-4.705a.449.449 0 0 1-.448-.448V7.812a.449.449 0 0 1 .448-.449h6.826a.448.448 0 0 0 .449-.448V.95a.447.447 0 0 0-.449-.451H35.174a.448.448 0 0 0-.449.45l.006 38.597zm47.292 0a.449.449 0 0 0 .451.448h5.275c.248 0 .448-.2.448-.78V.948A.448.448 0 0 0 87.748.5h-5.275a.449.449 0 0 0-.451.45v13.368a.448.448 0 0 1-.449.443h-4.595a.449.449 0 0 1-.448-.448V.944a.45.45 0 0 0-.448-.451h-5.275a.448.448 0 0 0-.451.448v38.605a.447.447 0 0 0 .45.448h5.276a.448.448 0 0 0 .448-.448v-17.94a.448.448 0 0 1 .448-.44h4.596a.448.448 0 0 1 .448.448v17.932zm-15.668.448a.73.73 0 0 0 .73-.73v-4.622a.73.73 0 0 0-.73-.73H51.872a.73.73 0 0 0-.73.73v4.626a.73.73 0 0 0 .73.73h14.482v-.004zM31.97 39.44a.387.387 0 0 1-.348.557H26.33a.394.394 0 0 1-.35-.22l-3.064-6.283a.836.836 0 0 0-.771-.507h-.407a.451.451 0 0 0-.448.452v6.107a.448.448 0 0 1-.449.448H15.57a.451.451 0 0 1-.452-.448V11.538a.451.451 0 0 1 .452-.448h9.254c3.372 0 6.653 2.244 6.653 6.29v9.005c0 3.08-1.2 4.79-3.105 5.692l3.598 7.363zm-7.054-22.115c0-1.033-.404-1.437-1.17-1.437H21.74a.449.449 0 0 0-.448.448v10.625a.449.449 0 0 0 .448.448h2.008c.766 0 1.17-.403 1.17-1.437v-8.647zM59.17 32.018c5.353 0 8.687-3.899 8.687-8.633 0-4.233-3.195-7.074-6.105-9.55-2.395-2.163-4.272-3.38-4.272-5.767a1.868 1.868 0 0 1 1.924-1.98c1.034 0 1.783.721 1.783 1.95v2.67a.596.596 0 0 0 .601.59h5.091a.596.596 0 0 0 .602-.59V8.246c0-4.414-3.29-8.24-8.077-8.24-5.915 0-8.872 4.547-8.872 8.911 0 4.1 3.341 7.071 6.149 9.324 2.359 2.089 4.23 3.654 4.23 5.774 0 1.44-.654 2.25-2.064 2.25-1.409 0-2.208-.944-2.208-2.25v-2.992a.598.598 0 0 0-.602-.59h-5.074a.594.594 0 0 0-.601.59v2.992c0 4.91 3.342 8.003 8.828 8.003h-.02zm40.82-.211c4.942 0 8-3.192 8-7.865V20.08a.45.45 0 0 0-.451-.448h-5.18a.452.452 0 0 0-.451.448v3.952c0 1.033-.674 1.797-1.933 1.797-1.258 0-1.885-.764-1.885-1.797V8.333c0-1.034.63-1.797 1.885-1.797 1.256 0 1.933.763 1.933 1.797v4.8a.457.457 0 0 0 .451.452h5.166a.452.452 0 0 0 .451-.451V8.422c0-4.629-3.057-8.422-7.998-8.422-5.121 0-8.817 3.93-8.817 8.825v14.713c0 4.94 3.696 8.269 8.817 8.269h.011zM143.771 40a.73.73 0 0 0 .73-.73v-4.628a.73.73 0 0 0-.73-.73h-4.659a.73.73 0 0 0-.73.73v4.626a.73.73 0 0 0 .73.73h4.656l.003.002zm-17.926-.003a.73.73 0 0 0 .678-.45.747.747 0 0 0 .057-.28v-4.625a.748.748 0 0 0-.217-.517.729.729 0 0 0-.518-.213H91.772a.736.736 0 0 0-.738.73v4.626a.735.735 0 0 0 .738.73h34.074zm10.861-10.672h2.347c3.741 0 6.773-2.403 6.773-6.892V7.45c0-4.504-3.046-6.963-6.798-6.963h-9.184a.453.453 0 0 0-.449.443v38.616a.46.46 0 0 0 .278.422.45.45 0 0 0 .173.035h5.27a.453.453 0 0 0 .451-.443v-9.795a.445.445 0 0 1 .153-.326.455.455 0 0 1 .342-.114h.644zm2.359-6.703c0 1.03-.471 1.501-1.268 1.501h-1.782a.446.446 0 0 1-.448-.451V6.726a.448.448 0 0 1 .448-.449h1.782c.797 0 1.268.42 1.268 1.501v14.844zM126.157 8.463V31.1a.448.448 0 0 1-.448.449H120.9a.45.45 0 0 1-.438-.346l-.404-1.707a5.683 5.683 0 0 1-4.581 2.253c-3.091 0-5.57-2.651-5.57-6.987v-.91c0-4.718 1.114-9.055 9.542-9.055V7.38c0-.869-.488-1.465-1.301-1.465-.76 0-1.248.596-1.248 1.465v5.754a.45.45 0 0 1-.451.45h-5.13a.455.455 0 0 1-.451-.45V8.076c0-4.392 2.387-8.076 7.701-8.076 4.932 0 7.588 3.857 7.588 8.463zm-6.72 10.305c-2.885 0-3.035 1.95-3.035 3.848v2.279c0 1.192.596 1.843 1.571 1.843.974 0 1.464-.651 1.464-1.629v-6.341z" fill="#1F1F1F"/></g><defs><clipPath id="clip0"><path fill="#fff" d="M0 0h146v40H0z"/></clipPath></defs></svg>